<svg width="295" height="78" viewBox="0 0 295 78" fill="none" xmlns="http://www.w3.org/2000/svg">
<path d="M0.558594 29.9688C0.285156 29.7656 0.148438 29.5234 0.148438 29.2422C0.148438 29.1328 0.167969 29.0273 0.207031 28.9258C0.246094 28.8164 0.316406 28.707 0.417969 28.5977L0.757812 28.2109C0.960938 27.9609 1.19922 27.8359 1.47266 27.8359C1.56641 27.8359 1.66797 27.8555 1.77734 27.8945C1.87891 27.9258 1.98438 27.9844 2.09375 28.0703C3.1875 28.8906 4.23828 29.7422 5.24609 30.625C6.26172 31.5 7.24219 32.457 8.1875 33.4961C8.33594 33.6367 8.46484 33.707 8.57422 33.707C8.78516 33.707 8.91406 33.5664 8.96094 33.2852L9.99219 29.1719C10.1094 28.7109 10.3477 28.4805 10.707 28.4805C10.7852 28.4805 10.8672 28.4922 10.9531 28.5156C11.0469 28.5391 11.1406 28.582 11.2344 28.6445L11.6445 28.8672C12.0273 29.0781 12.2188 29.3633 12.2188 29.7227C12.2188 29.8398 12.1953 29.9688 12.1484 30.1094C11.8828 31.0859 11.6133 32.1172 11.3398 33.2031C11.0742 34.2812 10.8008 35.3906 10.5195 36.5312C10.2383 37.6641 9.94922 38.8125 9.65234 39.9766C9.35547 41.1406 9.05078 42.293 8.73828 43.4336C8.61328 43.9102 8.34375 44.1484 7.92969 44.1484C7.8125 44.1484 7.68359 44.125 7.54297 44.0781L7.15625 43.9609C6.91406 43.8984 6.73828 43.7969 6.62891 43.6562C6.51953 43.5156 6.46484 43.3438 6.46484 43.1406C6.46484 43.0938 6.46484 43.0391 6.46484 42.9766C6.47266 42.9141 6.48828 42.8516 6.51172 42.7891C6.76172 41.8594 7.00781 40.9375 7.25 40.0234C7.49219 39.1094 7.72656 38.1914 7.95312 37.2695C7.96875 37.2148 7.98047 37.168 7.98828 37.1289C7.99609 37.0898 8 37.0469 8 37C8 36.9062 7.97656 36.8164 7.92969 36.7305C7.89062 36.6445 7.83594 36.5586 7.76562 36.4727C6.66406 35.2539 5.51172 34.1094 4.30859 33.0391C3.11328 31.9688 1.86328 30.9453 0.558594 29.9688ZM14.2578 36.1094C14.2578 35.9766 14.2734 35.8281 14.3047 35.6641C14.3359 35.5 14.3516 35.3203 14.3516 35.125C14.3516 34.9922 14.293 34.8906 14.1758 34.8203C14.0664 34.75 13.9414 34.6719 13.8008 34.5859C13.6602 34.5 13.5312 34.3906 13.4141 34.2578C13.3047 34.125 13.25 33.9336 13.25 33.6836C13.25 33.5039 13.2969 33.3242 13.3906 33.1445C13.4922 32.9648 13.6367 32.8008 13.8242 32.6523C14.2852 32.3086 14.7617 32 15.2539 31.7266C15.7539 31.4531 16.25 31.2227 16.7422 31.0352C17.2422 30.8477 17.7344 30.7031 18.2188 30.6016C18.7031 30.5 19.168 30.4492 19.6133 30.4492C20.3633 30.4492 21.0664 30.5898 21.7227 30.8711C22.3867 31.1445 22.9609 31.5234 23.4453 32.0078C23.9375 32.4844 24.3242 33.0469 24.6055 33.6953C24.8945 34.3359 25.0391 35.0234 25.0391 35.7578C25.0391 36.4766 24.8867 37.1602 24.582 37.8086C24.2852 38.4492 23.8828 39.0117 23.375 39.4961C22.8672 39.9805 22.2695 40.3633 21.582 40.6445C20.9023 40.9336 20.1836 41.0781 19.4258 41.0781C18.6836 41.0781 17.9961 40.9531 17.3633 40.7031C16.7305 40.4531 16.1836 40.1094 15.7227 39.6719C15.2617 39.2266 14.9023 38.7031 14.6445 38.1016C14.3867 37.4922 14.2578 36.8281 14.2578 36.1094ZM19.6836 38.9688C20.0117 38.9688 20.3516 38.9023 20.7031 38.7695C21.0547 38.6367 21.375 38.4453 21.6641 38.1953C21.9609 37.9375 22.2031 37.625 22.3906 37.2578C22.5859 36.8906 22.6836 36.4766 22.6836 36.0156C22.6836 35.5469 22.5977 35.1094 22.4258 34.7031C22.2539 34.2969 22.0156 33.9453 21.7109 33.6484C21.4141 33.3438 21.0586 33.1055 20.6445 32.9336C20.2383 32.7617 19.7969 32.6758 19.3203 32.6758C18.4531 32.6758 17.7891 32.9023 17.3281 33.3555C16.8672 33.8008 16.6367 34.4883 16.6367 35.418C16.6367 35.9258 16.7109 36.3984 16.8594 36.8359C17.0156 37.2656 17.2305 37.6406 17.5039 37.9609C17.7773 38.2734 18.0977 38.5195 18.4648 38.6992C18.8398 38.8789 19.2461 38.9688 19.6836 38.9688ZM29.0352 35.8516C29.0352 36.8984 29.1953 37.707 29.5156 38.2773C29.8359 38.8477 30.3008 39.1328 30.9102 39.1328C31.293 39.1328 31.6445 39.0195 31.9648 38.793C32.293 38.5664 32.5742 38.25 32.8086 37.8438C33.043 37.4375 33.2227 36.957 33.3477 36.4023C33.4805 35.8398 33.5469 35.2305 33.5469 34.5742C33.5469 34.1758 33.5312 33.832 33.5 33.543C33.4688 33.2461 33.4336 32.9844 33.3945 32.7578C33.3633 32.5234 33.332 32.3164 33.3008 32.1367C33.2695 31.957 33.2539 31.7852 33.2539 31.6211C33.2539 31.3711 33.3594 31.1914 33.5703 31.082C33.7812 30.9648 34.1172 30.9062 34.5781 30.9062C35.1641 30.9062 35.6172 31.0391 35.9375 31.3047C36.2656 31.5703 36.4297 31.957 36.4297 32.4648C36.4297 33.8477 36.293 35.0898 36.0195 36.1914C35.7539 37.293 35.3672 38.2305 34.8594 39.0039C34.3594 39.7695 33.75 40.3594 33.0312 40.7734C32.3125 41.1875 31.5078 41.3945 30.6172 41.3945C29.9844 41.3945 29.3984 41.2617 28.8594 40.9961C28.3281 40.7383 27.8672 40.375 27.4766 39.9062C27.0938 39.4297 26.793 38.8672 26.5742 38.2188C26.3555 37.5625 26.2461 36.8438 26.2461 36.0625C26.2461 35.7656 26.2539 35.4492 26.2695 35.1133C26.2852 34.7773 26.3086 34.418 26.3398 34.0352C26.3711 33.6445 26.4102 33.2227 26.457 32.7695C26.5117 32.3164 26.5703 31.8242 26.6328 31.293C26.6562 31.0664 26.7617 30.8867 26.9492 30.7539C27.1445 30.6133 27.3906 30.543 27.6875 30.543C27.9531 30.543 28.2031 30.5703 28.4375 30.625C28.6719 30.6797 28.8711 30.7539 29.0352 30.8477C29.207 30.9414 29.3398 31.0508 29.4336 31.1758C29.5352 31.3008 29.5859 31.4336 29.5859 31.5742C29.5859 31.7148 29.5547 31.9375 29.4922 32.2422C29.4375 32.5391 29.375 32.8828 29.3047 33.2734C29.2422 33.6562 29.1797 34.0742 29.1172 34.5273C29.0625 34.9727 29.0352 35.4141 29.0352 35.8516ZM43.7422 30.543C43.7422 30.4258 43.793 30.3125 43.8945 30.2031C43.9961 30.0859 44.1289 29.9844 44.293 29.8984C44.457 29.8047 44.6406 29.7305 44.8438 29.6758C45.0547 29.6133 45.2656 29.582 45.4766 29.582C45.5938 29.582 45.6914 29.6133 45.7695 29.6758C45.8555 29.7383 45.9297 29.8594 45.9922 30.0391C46.0547 30.2109 46.1094 30.457 46.1562 30.7773C46.2109 31.0898 46.2617 31.5 46.3086 32.0078C46.3398 32.1641 46.3672 32.2852 46.3906 32.3711C46.4219 32.4492 46.4609 32.4883 46.5078 32.4883C46.5781 32.4883 46.6484 32.3672 46.7188 32.125C47.2891 30.4766 48.1133 29.6523 49.1914 29.6523C49.6914 29.6523 50.1445 29.8086 50.5508 30.1211C50.9648 30.4336 51.3477 30.9453 51.6992 31.6562C52.0586 32.3594 52.3984 33.2891 52.7188 34.4453C53.0391 35.5938 53.3594 37.0117 53.6797 38.6992C53.6953 38.7852 53.707 38.8633 53.7148 38.9336C53.7227 39.0039 53.7266 39.0703 53.7266 39.1328C53.7266 39.3125 53.6836 39.4688 53.5977 39.6016C53.5195 39.7266 53.4141 39.832 53.2812 39.918C53.1484 39.9961 53 40.0547 52.8359 40.0938C52.6719 40.1406 52.5078 40.1641 52.3438 40.1641C52.0156 40.1641 51.7773 40.1289 51.6289 40.0586C51.4883 39.9883 51.3984 39.8555 51.3594 39.6602C51.1328 38.4727 50.9102 37.418 50.6914 36.4961C50.4805 35.5742 50.2695 34.8008 50.0586 34.1758C49.8555 33.543 49.6523 33.0625 49.4492 32.7344C49.2461 32.4062 49.043 32.2422 48.8398 32.2422C48.6367 32.2422 48.4453 32.3711 48.2656 32.6289C48.0938 32.8789 47.9258 33.2734 47.7617 33.8125C47.5977 34.3516 47.4375 35.0352 47.2812 35.8633C47.1328 36.6914 46.9883 37.6797 46.8477 38.8281C46.8086 39.1406 46.6523 39.3906 46.3789 39.5781C46.1055 39.7656 45.7578 39.8594 45.3359 39.8594C45.0547 39.8594 44.8398 39.8008 44.6914 39.6836C44.543 39.5664 44.4609 39.4062 44.4453 39.2031C44.375 37.5781 44.2969 36.2422 44.2109 35.1953C44.1328 34.1406 44.0586 33.2969 43.9883 32.6641C43.918 32.0234 43.8594 31.5469 43.8125 31.2344C43.7656 30.9219 43.7422 30.6914 43.7422 30.543ZM64.9297 37.4336C65.1562 37.2383 65.3789 37.1406 65.5977 37.1406C65.7227 37.1406 65.8359 37.1719 65.9375 37.2344C66.0391 37.2969 66.1523 37.3945 66.2773 37.5273C66.3945 37.707 66.4766 37.8555 66.5234 37.9727C66.5781 38.082 66.6055 38.1914 66.6055 38.3008C66.6055 38.5352 66.4883 38.7578 66.2539 38.9688C65.8789 39.2812 65.4727 39.5625 65.0352 39.8125C64.5977 40.0547 64.1406 40.2617 63.6641 40.4336C63.1875 40.6055 62.6953 40.7344 62.1875 40.8203C61.6797 40.9141 61.1758 40.9609 60.6758 40.9609C60.043 40.9609 59.4492 40.8789 58.8945 40.7148C58.3398 40.5586 57.8438 40.332 57.4062 40.0352C56.9766 39.7383 56.6133 39.3828 56.3164 38.9688C56.0195 38.5469 55.8086 38.0742 55.6836 37.5508C55.6133 37.332 55.5469 37.1914 55.4844 37.1289C55.4297 37.0586 55.3359 37.0234 55.2031 37.0234C54.9141 37.0234 54.6914 36.9531 54.5352 36.8125C54.3789 36.6719 54.3008 36.4688 54.3008 36.2031C54.3008 36.0938 54.3086 36.0234 54.3242 35.9922L54.3477 35.7578C54.3867 35.4766 54.4609 35.2734 54.5703 35.1484C54.6875 35.0234 54.8672 34.9609 55.1094 34.9609H55.2852C55.6133 34.9609 55.8438 34.8086 55.9766 34.5039C56.2188 33.9648 56.5273 33.4727 56.9023 33.0273C57.2773 32.582 57.6992 32.2031 58.168 31.8906C58.6367 31.5703 59.1367 31.3242 59.668 31.1523C60.207 30.9727 60.7539 30.8828 61.3086 30.8828C61.8867 30.8828 62.4258 30.9688 62.9258 31.1406C63.4336 31.3047 63.875 31.5352 64.25 31.832C64.625 32.1289 64.918 32.4766 65.1289 32.875C65.3477 33.2734 65.457 33.7031 65.457 34.1641C65.457 34.4844 65.3945 34.7773 65.2695 35.043C65.1445 35.3086 64.9648 35.543 64.7305 35.7461C64.4961 35.9414 64.2109 36.1016 63.875 36.2266C63.5469 36.3516 63.1719 36.4336 62.75 36.4727L58.6836 36.8828C58.5273 36.8828 58.3984 36.9219 58.2969 37C58.2031 37.0781 58.1562 37.1836 58.1562 37.3164C58.1562 37.5195 58.2305 37.7148 58.3789 37.9023C58.5352 38.0898 58.7383 38.2578 58.9883 38.4062C59.2461 38.5469 59.5391 38.6602 59.8672 38.7461C60.2031 38.832 60.5469 38.875 60.8984 38.875C61.2344 38.875 61.5781 38.8438 61.9297 38.7812C62.2891 38.7109 62.6406 38.6133 62.9844 38.4883C63.3359 38.3633 63.6758 38.2148 64.0039 38.043C64.332 37.8633 64.6406 37.6602 64.9297 37.4336ZM62.3164 34.4102C62.4336 34.3867 62.5352 34.332 62.6211 34.2461C62.707 34.1523 62.75 34.0391 62.75 33.9062C62.75 33.7891 62.707 33.6797 62.6211 33.5781C62.5352 33.4766 62.418 33.3867 62.2695 33.3086C62.1211 33.2227 61.9492 33.1562 61.7539 33.1094C61.5586 33.0625 61.3516 33.0391 61.1328 33.0391C60.8125 33.0391 60.4844 33.0859 60.1484 33.1797C59.8125 33.2734 59.5078 33.3984 59.2344 33.5547C58.9609 33.7031 58.7383 33.8711 58.5664 34.0586C58.3945 34.2383 58.3086 34.418 58.3086 34.5977C58.3086 34.7773 58.418 34.8672 58.6367 34.8672C58.7695 34.8672 58.9844 34.8516 59.2812 34.8203C59.5781 34.7891 59.9062 34.7539 60.2656 34.7148C60.625 34.668 60.9883 34.6172 61.3555 34.5625C61.7227 34.5078 62.043 34.457 62.3164 34.4102ZM77.3281 37.4336C77.5547 37.2383 77.7773 37.1406 77.9961 37.1406C78.1211 37.1406 78.2344 37.1719 78.3359 37.2344C78.4375 37.2969 78.5508 37.3945 78.6758 37.5273C78.793 37.707 78.875 37.8555 78.9219 37.9727C78.9766 38.082 79.0039 38.1914 79.0039 38.3008C79.0039 38.5352 78.8867 38.7578 78.6523 38.9688C78.2773 39.2812 77.8711 39.5625 77.4336 39.8125C76.9961 40.0547 76.5391 40.2617 76.0625 40.4336C75.5859 40.6055 75.0938 40.7344 74.5859 40.8203C74.0781 40.9141 73.5742 40.9609 73.0742 40.9609C72.4414 40.9609 71.8477 40.8789 71.293 40.7148C70.7383 40.5586 70.2422 40.332 69.8047 40.0352C69.375 39.7383 69.0117 39.3828 68.7148 38.9688C68.418 38.5469 68.207 38.0742 68.082 37.5508C68.0117 37.332 67.9453 37.1914 67.8828 37.1289C67.8281 37.0586 67.7344 37.0234 67.6016 37.0234C67.3125 37.0234 67.0898 36.9531 66.9336 36.8125C66.7773 36.6719 66.6992 36.4688 66.6992 36.2031C66.6992 36.0938 66.707 36.0234 66.7227 35.9922L66.7461 35.7578C66.7852 35.4766 66.8594 35.2734 66.9688 35.1484C67.0859 35.0234 67.2656 34.9609 67.5078 34.9609H67.6836C68.0117 34.9609 68.2422 34.8086 68.375 34.5039C68.6172 33.9648 68.9258 33.4727 69.3008 33.0273C69.6758 32.582 70.0977 32.2031 70.5664 31.8906C71.0352 31.5703 71.5352 31.3242 72.0664 31.1523C72.6055 30.9727 73.1523 30.8828 73.707 30.8828C74.2852 30.8828 74.8242 30.9688 75.3242 31.1406C75.832 31.3047 76.2734 31.5352 76.6484 31.832C77.0234 32.1289 77.3164 32.4766 77.5273 32.875C77.7461 33.2734 77.8555 33.7031 77.8555 34.1641C77.8555 34.4844 77.793 34.7773 77.668 35.043C77.543 35.3086 77.3633 35.543 77.1289 35.7461C76.8945 35.9414 76.6094 36.1016 76.2734 36.2266C75.9453 36.3516 75.5703 36.4336 75.1484 36.4727L71.082 36.8828C70.9258 36.8828 70.7969 36.9219 70.6953 37C70.6016 37.0781 70.5547 37.1836 70.5547 37.3164C70.5547 37.5195 70.6289 37.7148 70.7773 37.9023C70.9336 38.0898 71.1367 38.2578 71.3867 38.4062C71.6445 38.5469 71.9375 38.6602 72.2656 38.7461C72.6016 38.832 72.9453 38.875 73.2969 38.875C73.6328 38.875 73.9766 38.8438 74.3281 38.7812C74.6875 38.7109 75.0391 38.6133 75.3828 38.4883C75.7344 38.3633 76.0742 38.2148 76.4023 38.043C76.7305 37.8633 77.0391 37.6602 77.3281 37.4336ZM74.7148 34.4102C74.832 34.3867 74.9336 34.332 75.0195 34.2461C75.1055 34.1523 75.1484 34.0391 75.1484 33.9062C75.1484 33.7891 75.1055 33.6797 75.0195 33.5781C74.9336 33.4766 74.8164 33.3867 74.668 33.3086C74.5195 33.2227 74.3477 33.1562 74.1523 33.1094C73.957 33.0625 73.75 33.0391 73.5312 33.0391C73.2109 33.0391 72.8828 33.0859 72.5469 33.1797C72.2109 33.2734 71.9062 33.3984 71.6328 33.5547C71.3594 33.7031 71.1367 33.8711 70.9648 34.0586C70.793 34.2383 70.707 34.418 70.707 34.5977C70.707 34.7773 70.8164 34.8672 71.0352 34.8672C71.168 34.8672 71.3828 34.8516 71.6797 34.8203C71.9766 34.7891 72.3047 34.7539 72.6641 34.7148C73.0234 34.668 73.3867 34.6172 73.7539 34.5625C74.1211 34.5078 74.4414 34.457 74.7148 34.4102ZM87.5938 31.4336C87.625 31.4492 87.6719 31.457 87.7344 31.457C87.9062 31.457 87.9922 31.3438 87.9922 31.1172V27.4727C87.9922 27.0117 88.0938 26.6836 88.2969 26.4883C88.5078 26.293 88.8555 26.1953 89.3398 26.1953C89.832 26.1953 90.1797 26.2969 90.3828 26.5C90.5859 26.7031 90.6875 27.0508 90.6875 27.543C90.6875 27.7305 90.6758 28.0078 90.6523 28.375C90.6289 28.7344 90.6016 29.1445 90.5703 29.6055C90.5469 30.0664 90.5234 30.5625 90.5 31.0938C90.4766 31.6172 90.4648 32.1367 90.4648 32.6523C90.4648 33.4492 90.5195 34.1367 90.6289 34.7148C90.7383 35.293 90.8945 35.7734 91.0977 36.1562C91.3008 36.5312 91.543 36.8125 91.8242 37C92.1055 37.1797 92.4219 37.2695 92.7734 37.2695C92.9688 37.2695 93.1445 37.2461 93.3008 37.1992C93.4648 37.1445 93.6562 37.1172 93.875 37.1172C94.0312 37.1172 94.1602 37.1992 94.2617 37.3633C94.3711 37.5195 94.4258 37.7109 94.4258 37.9375C94.4258 38.1406 94.3633 38.332 94.2383 38.5117C94.1211 38.6914 93.957 38.8477 93.7461 38.9805C93.543 39.1133 93.3047 39.2188 93.0312 39.2969C92.7578 39.3672 92.4727 39.4023 92.1758 39.4023C91.5352 39.4023 90.9492 39.207 90.418 38.8164C89.8867 38.418 89.4883 37.8125 89.2227 37C89.1992 36.875 89.1602 36.8125 89.1055 36.8125C89.043 36.8125 88.9922 36.875 88.9531 37C88.7422 37.5703 88.4648 38.0859 88.1211 38.5469C87.7852 39 87.3906 39.3906 86.9375 39.7188C86.4922 40.0391 86 40.2852 85.4609 40.457C84.9297 40.6289 84.3672 40.7148 83.7734 40.7148C83.1484 40.7148 82.5742 40.6094 82.0508 40.3984C81.5352 40.1953 81.0898 39.9102 80.7148 39.543C80.3398 39.168 80.0469 38.7305 79.8359 38.2305C79.625 37.7227 79.5195 37.1758 79.5195 36.5898C79.5195 35.8398 79.6758 35.1328 79.9883 34.4688C80.3008 33.8047 80.7227 33.2266 81.2539 32.7344C81.793 32.2344 82.418 31.8398 83.1289 31.5508C83.8398 31.2617 84.5977 31.1172 85.4023 31.1172C85.7305 31.1172 86.0781 31.1445 86.4453 31.1992C86.8125 31.2461 87.1953 31.3242 87.5938 31.4336ZM84.2305 38.6055C84.6758 38.6055 85.0703 38.5078 85.4141 38.3125C85.7656 38.1172 86.0742 37.8711 86.3398 37.5742C86.6133 37.2695 86.8438 36.9375 87.0312 36.5781C87.2188 36.2109 87.3711 35.8555 87.4883 35.5117C87.6055 35.168 87.6914 34.8594 87.7461 34.5859C87.8008 34.3125 87.8281 34.1172 87.8281 34C87.8281 33.9141 87.8047 33.8398 87.7578 33.7773C87.7109 33.707 87.6406 33.6523 87.5469 33.6133C87.3359 33.5586 87.1172 33.5117 86.8906 33.4727C86.6641 33.4258 86.4414 33.3867 86.2227 33.3555C86.0039 33.3242 85.793 33.3008 85.5898 33.2852C85.3945 33.2695 85.2148 33.2617 85.0508 33.2617C84.582 33.2617 84.1562 33.332 83.7734 33.4727C83.3906 33.6133 83.0625 33.8125 82.7891 34.0703C82.5234 34.3281 82.3164 34.6367 82.168 34.9961C82.0195 35.3477 81.9453 35.7344 81.9453 36.1562C81.9453 36.5312 82 36.8711 82.1094 37.1758C82.2266 37.4727 82.3828 37.7266 82.5781 37.9375C82.7812 38.1484 83.0234 38.3125 83.3047 38.4297C83.5859 38.5469 83.8945 38.6055 84.2305 38.6055ZM100.602 26.4648C100.602 26.0508 100.719 25.7617 100.953 25.5977C101.188 25.4258 101.574 25.3398 102.113 25.3398C102.309 25.3398 102.473 25.3594 102.605 25.3984C102.746 25.4297 102.863 25.4922 102.957 25.5859C103.059 25.6797 103.137 25.8047 103.191 25.9609C103.254 26.1094 103.305 26.3008 103.344 26.5352C103.438 27.2617 103.539 28.0117 103.648 28.7852C103.766 29.5586 103.887 30.3359 104.012 31.1172C104.059 31.4688 104.242 31.6445 104.562 31.6445C104.648 31.6445 104.789 31.6367 104.984 31.6211C105.188 31.5977 105.426 31.5742 105.699 31.5508C105.973 31.5195 106.266 31.4883 106.578 31.457C106.898 31.4258 107.215 31.3984 107.527 31.375C107.848 31.3438 108.148 31.3203 108.43 31.3047C108.719 31.2812 108.973 31.2695 109.191 31.2695C109.363 31.2695 109.5 31.3047 109.602 31.375C109.703 31.4375 109.781 31.5234 109.836 31.6328C109.898 31.7344 109.938 31.8516 109.953 31.9844C109.977 32.1094 109.988 32.2383 109.988 32.3711C109.988 32.4883 109.965 32.6094 109.918 32.7344C109.879 32.8594 109.82 32.9727 109.742 33.0742C109.672 33.168 109.582 33.2461 109.473 33.3086C109.363 33.3711 109.238 33.4023 109.098 33.4023C108.418 33.4023 107.73 33.4258 107.035 33.4727C106.348 33.5117 105.66 33.5664 104.973 33.6367C104.621 33.6836 104.445 33.8594 104.445 34.1641C104.445 34.1875 104.449 34.2188 104.457 34.2578C104.465 34.2891 104.469 34.3164 104.469 34.3398C104.562 35.0195 104.648 35.6562 104.727 36.25C104.812 36.8438 104.883 37.375 104.938 37.8438C105 38.3047 105.047 38.6914 105.078 39.0039C105.117 39.3086 105.137 39.5117 105.137 39.6133C105.137 39.8945 105.109 40.1289 105.055 40.3164C105 40.5117 104.91 40.668 104.785 40.7852C104.66 40.9102 104.492 40.9961 104.281 41.043C104.078 41.0977 103.82 41.125 103.508 41.125C103.211 41.125 102.992 41.0547 102.852 40.9141C102.711 40.7734 102.633 40.5586 102.617 40.2695C102.57 39.3477 102.496 38.4219 102.395 37.4922C102.293 36.5547 102.176 35.6211 102.043 34.6914C101.973 34.3555 101.797 34.1875 101.516 34.1875C101.492 34.1875 101.465 34.1914 101.434 34.1992C101.402 34.207 101.375 34.2109 101.352 34.2109C100.867 34.3203 100.41 34.4297 99.9805 34.5391C99.5508 34.6484 99.1484 34.7656 98.7734 34.8906C98.5625 34.9609 98.375 35.0117 98.2109 35.043C98.0469 35.0664 97.8984 35.0781 97.7656 35.0781C97.5859 35.0781 97.4531 35 97.3672 34.8438C97.2812 34.6797 97.2383 34.4766 97.2383 34.2344C97.2383 34.1484 97.2461 34.0508 97.2617 33.9414C97.2773 33.8242 97.3086 33.7109 97.3555 33.6016C97.3945 33.4844 97.457 33.3789 97.543 33.2852C97.6211 33.1836 97.7305 33.1016 97.8711 33.0391C98.1992 32.9062 98.6367 32.7695 99.1836 32.6289C99.7305 32.4805 100.348 32.3438 101.035 32.2188C101.191 32.1797 101.312 32.1172 101.398 32.0312C101.492 31.9375 101.539 31.8008 101.539 31.6211C101.539 31.582 101.539 31.543 101.539 31.5039C101.539 31.457 101.531 31.4102 101.516 31.3633C101.391 30.6445 101.27 29.9922 101.152 29.4062C101.043 28.8125 100.945 28.3047 100.859 27.8828C100.781 27.4609 100.719 27.1289 100.672 26.8867C100.625 26.6445 100.602 26.5039 100.602 26.4648ZM109.461 36.1094C109.461 35.9766 109.477 35.8281 109.508 35.6641C109.539 35.5 109.555 35.3203 109.555 35.125C109.555 34.9922 109.496 34.8906 109.379 34.8203C109.27 34.75 109.145 34.6719 109.004 34.5859C108.863 34.5 108.734 34.3906 108.617 34.2578C108.508 34.125 108.453 33.9336 108.453 33.6836C108.453 33.5039 108.5 33.3242 108.594 33.1445C108.695 32.9648 108.84 32.8008 109.027 32.6523C109.488 32.3086 109.965 32 110.457 31.7266C110.957 31.4531 111.453 31.2227 111.945 31.0352C112.445 30.8477 112.938 30.7031 113.422 30.6016C113.906 30.5 114.371 30.4492 114.816 30.4492C115.566 30.4492 116.27 30.5898 116.926 30.8711C117.59 31.1445 118.164 31.5234 118.648 32.0078C119.141 32.4844 119.527 33.0469 119.809 33.6953C120.098 34.3359 120.242 35.0234 120.242 35.7578C120.242 36.4766 120.09 37.1602 119.785 37.8086C119.488 38.4492 119.086 39.0117 118.578 39.4961C118.07 39.9805 117.473 40.3633 116.785 40.6445C116.105 40.9336 115.387 41.0781 114.629 41.0781C113.887 41.0781 113.199 40.9531 112.566 40.7031C111.934 40.4531 111.387 40.1094 110.926 39.6719C110.465 39.2266 110.105 38.7031 109.848 38.1016C109.59 37.4922 109.461 36.8281 109.461 36.1094ZM114.887 38.9688C115.215 38.9688 115.555 38.9023 115.906 38.7695C116.258 38.6367 116.578 38.4453 116.867 38.1953C117.164 37.9375 117.406 37.625 117.594 37.2578C117.789 36.8906 117.887 36.4766 117.887 36.0156C117.887 35.5469 117.801 35.1094 117.629 34.7031C117.457 34.2969 117.219 33.9453 116.914 33.6484C116.617 33.3438 116.262 33.1055 115.848 32.9336C115.441 32.7617 115 32.6758 114.523 32.6758C113.656 32.6758 112.992 32.9023 112.531 33.3555C112.07 33.8008 111.84 34.4883 111.84 35.418C111.84 35.9258 111.914 36.3984 112.062 36.8359C112.219 37.2656 112.434 37.6406 112.707 37.9609C112.98 38.2734 113.301 38.5195 113.668 38.6992C114.043 38.8789 114.449 38.9688 114.887 38.9688ZM137.445 37.4336C137.672 37.2383 137.895 37.1406 138.113 37.1406C138.238 37.1406 138.352 37.1719 138.453 37.2344C138.555 37.2969 138.668 37.3945 138.793 37.5273C138.91 37.707 138.992 37.8555 139.039 37.9727C139.094 38.082 139.121 38.1914 139.121 38.3008C139.121 38.5352 139.004 38.7578 138.77 38.9688C138.395 39.2812 137.988 39.5625 137.551 39.8125C137.113 40.0547 136.656 40.2617 136.18 40.4336C135.703 40.6055 135.211 40.7344 134.703 40.8203C134.195 40.9141 133.691 40.9609 133.191 40.9609C132.559 40.9609 131.965 40.8789 131.41 40.7148C130.855 40.5586 130.359 40.332 129.922 40.0352C129.492 39.7383 129.129 39.3828 128.832 38.9688C128.535 38.5469 128.324 38.0742 128.199 37.5508C128.129 37.332 128.062 37.1914 128 37.1289C127.945 37.0586 127.852 37.0234 127.719 37.0234C127.43 37.0234 127.207 36.9531 127.051 36.8125C126.895 36.6719 126.816 36.4688 126.816 36.2031C126.816 36.0938 126.824 36.0234 126.84 35.9922L126.863 35.7578C126.902 35.4766 126.977 35.2734 127.086 35.1484C127.203 35.0234 127.383 34.9609 127.625 34.9609H127.801C128.129 34.9609 128.359 34.8086 128.492 34.5039C128.734 33.9648 129.043 33.4727 129.418 33.0273C129.793 32.582 130.215 32.2031 130.684 31.8906C131.152 31.5703 131.652 31.3242 132.184 31.1523C132.723 30.9727 133.27 30.8828 133.824 30.8828C134.402 30.8828 134.941 30.9688 135.441 31.1406C135.949 31.3047 136.391 31.5352 136.766 31.832C137.141 32.1289 137.434 32.4766 137.645 32.875C137.863 33.2734 137.973 33.7031 137.973 34.1641C137.973 34.4844 137.91 34.7773 137.785 35.043C137.66 35.3086 137.48 35.543 137.246 35.7461C137.012 35.9414 136.727 36.1016 136.391 36.2266C136.062 36.3516 135.688 36.4336 135.266 36.4727L131.199 36.8828C131.043 36.8828 130.914 36.9219 130.812 37C130.719 37.0781 130.672 37.1836 130.672 37.3164C130.672 37.5195 130.746 37.7148 130.895 37.9023C131.051 38.0898 131.254 38.2578 131.504 38.4062C131.762 38.5469 132.055 38.6602 132.383 38.7461C132.719 38.832 133.062 38.875 133.414 38.875C133.75 38.875 134.094 38.8438 134.445 38.7812C134.805 38.7109 135.156 38.6133 135.5 38.4883C135.852 38.3633 136.191 38.2148 136.52 38.043C136.848 37.8633 137.156 37.6602 137.445 37.4336ZM134.832 34.4102C134.949 34.3867 135.051 34.332 135.137 34.2461C135.223 34.1523 135.266 34.0391 135.266 33.9062C135.266 33.7891 135.223 33.6797 135.137 33.5781C135.051 33.4766 134.934 33.3867 134.785 33.3086C134.637 33.2227 134.465 33.1562 134.27 33.1094C134.074 33.0625 133.867 33.0391 133.648 33.0391C133.328 33.0391 133 33.0859 132.664 33.1797C132.328 33.2734 132.023 33.3984 131.75 33.5547C131.477 33.7031 131.254 33.8711 131.082 34.0586C130.91 34.2383 130.824 34.418 130.824 34.5977C130.824 34.7773 130.934 34.8672 131.152 34.8672C131.285 34.8672 131.5 34.8516 131.797 34.8203C132.094 34.7891 132.422 34.7539 132.781 34.7148C133.141 34.668 133.504 34.6172 133.871 34.5625C134.238 34.5078 134.559 34.457 134.832 34.4102ZM140.07 30.543C140.07 30.4258 140.121 30.3125 140.223 30.2031C140.324 30.0859 140.457 29.9844 140.621 29.8984C140.785 29.8047 140.969 29.7305 141.172 29.6758C141.383 29.6133 141.594 29.582 141.805 29.582C141.922 29.582 142.02 29.6133 142.098 29.6758C142.184 29.7383 142.258 29.8594 142.32 30.0391C142.383 30.2109 142.438 30.457 142.484 30.7773C142.539 31.0898 142.59 31.5 142.637 32.0078C142.668 32.1641 142.695 32.2852 142.719 32.3711C142.75 32.4492 142.789 32.4883 142.836 32.4883C142.906 32.4883 142.977 32.3672 143.047 32.125C143.617 30.4766 144.441 29.6523 145.52 29.6523C146.02 29.6523 146.473 29.8086 146.879 30.1211C147.293 30.4336 147.676 30.9453 148.027 31.6562C148.387 32.3594 148.727 33.2891 149.047 34.4453C149.367 35.5938 149.688 37.0117 150.008 38.6992C150.023 38.7852 150.035 38.8633 150.043 38.9336C150.051 39.0039 150.055 39.0703 150.055 39.1328C150.055 39.3125 150.012 39.4688 149.926 39.6016C149.848 39.7266 149.742 39.832 149.609 39.918C149.477 39.9961 149.328 40.0547 149.164 40.0938C149 40.1406 148.836 40.1641 148.672 40.1641C148.344 40.1641 148.105 40.1289 147.957 40.0586C147.816 39.9883 147.727 39.8555 147.688 39.6602C147.461 38.4727 147.238 37.418 147.02 36.4961C146.809 35.5742 146.598 34.8008 146.387 34.1758C146.184 33.543 145.98 33.0625 145.777 32.7344C145.574 32.4062 145.371 32.2422 145.168 32.2422C144.965 32.2422 144.773 32.3711 144.594 32.6289C144.422 32.8789 144.254 33.2734 144.09 33.8125C143.926 34.3516 143.766 35.0352 143.609 35.8633C143.461 36.6914 143.316 37.6797 143.176 38.8281C143.137 39.1406 142.98 39.3906 142.707 39.5781C142.434 39.7656 142.086 39.8594 141.664 39.8594C141.383 39.8594 141.168 39.8008 141.02 39.6836C140.871 39.5664 140.789 39.4062 140.773 39.2031C140.703 37.5781 140.625 36.2422 140.539 35.1953C140.461 34.1406 140.387 33.2969 140.316 32.6641C140.246 32.0234 140.188 31.5469 140.141 31.2344C140.094 30.9219 140.07 30.6914 140.07 30.543ZM152.375 26.4648C152.375 26.0508 152.492 25.7617 152.727 25.5977C152.961 25.4258 153.348 25.3398 153.887 25.3398C154.082 25.3398 154.246 25.3594 154.379 25.3984C154.52 25.4297 154.637 25.4922 154.73 25.5859C154.832 25.6797 154.91 25.8047 154.965 25.9609C155.027 26.1094 155.078 26.3008 155.117 26.5352C155.211 27.2617 155.312 28.0117 155.422 28.7852C155.539 29.5586 155.66 30.3359 155.785 31.1172C155.832 31.4688 156.016 31.6445 156.336 31.6445C156.422 31.6445 156.562 31.6367 156.758 31.6211C156.961 31.5977 157.199 31.5742 157.473 31.5508C157.746 31.5195 158.039 31.4883 158.352 31.457C158.672 31.4258 158.988 31.3984 159.301 31.375C159.621 31.3438 159.922 31.3203 160.203 31.3047C160.492 31.2812 160.746 31.2695 160.965 31.2695C161.137 31.2695 161.273 31.3047 161.375 31.375C161.477 31.4375 161.555 31.5234 161.609 31.6328C161.672 31.7344 161.711 31.8516 161.727 31.9844C161.75 32.1094 161.762 32.2383 161.762 32.3711C161.762 32.4883 161.738 32.6094 161.691 32.7344C161.652 32.8594 161.594 32.9727 161.516 33.0742C161.445 33.168 161.355 33.2461 161.246 33.3086C161.137 33.3711 161.012 33.4023 160.871 33.4023C160.191 33.4023 159.504 33.4258 158.809 33.4727C158.121 33.5117 157.434 33.5664 156.746 33.6367C156.395 33.6836 156.219 33.8594 156.219 34.1641C156.219 34.1875 156.223 34.2188 156.23 34.2578C156.238 34.2891 156.242 34.3164 156.242 34.3398C156.336 35.0195 156.422 35.6562 156.5 36.25C156.586 36.8438 156.656 37.375 156.711 37.8438C156.773 38.3047 156.82 38.6914 156.852 39.0039C156.891 39.3086 156.91 39.5117 156.91 39.6133C156.91 39.8945 156.883 40.1289 156.828 40.3164C156.773 40.5117 156.684 40.668 156.559 40.7852C156.434 40.9102 156.266 40.9961 156.055 41.043C155.852 41.0977 155.594 41.125 155.281 41.125C154.984 41.125 154.766 41.0547 154.625 40.9141C154.484 40.7734 154.406 40.5586 154.391 40.2695C154.344 39.3477 154.27 38.4219 154.168 37.4922C154.066 36.5547 153.949 35.6211 153.816 34.6914C153.746 34.3555 153.57 34.1875 153.289 34.1875C153.266 34.1875 153.238 34.1914 153.207 34.1992C153.176 34.207 153.148 34.2109 153.125 34.2109C152.641 34.3203 152.184 34.4297 151.754 34.5391C151.324 34.6484 150.922 34.7656 150.547 34.8906C150.336 34.9609 150.148 35.0117 149.984 35.043C149.82 35.0664 149.672 35.0781 149.539 35.0781C149.359 35.0781 149.227 35 149.141 34.8438C149.055 34.6797 149.012 34.4766 149.012 34.2344C149.012 34.1484 149.02 34.0508 149.035 33.9414C149.051 33.8242 149.082 33.7109 149.129 33.6016C149.168 33.4844 149.23 33.3789 149.316 33.2852C149.395 33.1836 149.504 33.1016 149.645 33.0391C149.973 32.9062 150.41 32.7695 150.957 32.6289C151.504 32.4805 152.121 32.3438 152.809 32.2188C152.965 32.1797 153.086 32.1172 153.172 32.0312C153.266 31.9375 153.312 31.8008 153.312 31.6211C153.312 31.582 153.312 31.543 153.312 31.5039C153.312 31.457 153.305 31.4102 153.289 31.3633C153.164 30.6445 153.043 29.9922 152.926 29.4062C152.816 28.8125 152.719 28.3047 152.633 27.8828C152.555 27.4609 152.492 27.1289 152.445 26.8867C152.398 26.6445 152.375 26.5039 152.375 26.4648ZM171.055 37.4336C171.281 37.2383 171.504 37.1406 171.723 37.1406C171.848 37.1406 171.961 37.1719 172.062 37.2344C172.164 37.2969 172.277 37.3945 172.402 37.5273C172.52 37.707 172.602 37.8555 172.648 37.9727C172.703 38.082 172.73 38.1914 172.73 38.3008C172.73 38.5352 172.613 38.7578 172.379 38.9688C172.004 39.2812 171.598 39.5625 171.16 39.8125C170.723 40.0547 170.266 40.2617 169.789 40.4336C169.312 40.6055 168.82 40.7344 168.312 40.8203C167.805 40.9141 167.301 40.9609 166.801 40.9609C166.168 40.9609 165.574 40.8789 165.02 40.7148C164.465 40.5586 163.969 40.332 163.531 40.0352C163.102 39.7383 162.738 39.3828 162.441 38.9688C162.145 38.5469 161.934 38.0742 161.809 37.5508C161.738 37.332 161.672 37.1914 161.609 37.1289C161.555 37.0586 161.461 37.0234 161.328 37.0234C161.039 37.0234 160.816 36.9531 160.66 36.8125C160.504 36.6719 160.426 36.4688 160.426 36.2031C160.426 36.0938 160.434 36.0234 160.449 35.9922L160.473 35.7578C160.512 35.4766 160.586 35.2734 160.695 35.1484C160.812 35.0234 160.992 34.9609 161.234 34.9609H161.41C161.738 34.9609 161.969 34.8086 162.102 34.5039C162.344 33.9648 162.652 33.4727 163.027 33.0273C163.402 32.582 163.824 32.2031 164.293 31.8906C164.762 31.5703 165.262 31.3242 165.793 31.1523C166.332 30.9727 166.879 30.8828 167.434 30.8828C168.012 30.8828 168.551 30.9688 169.051 31.1406C169.559 31.3047 170 31.5352 170.375 31.832C170.75 32.1289 171.043 32.4766 171.254 32.875C171.473 33.2734 171.582 33.7031 171.582 34.1641C171.582 34.4844 171.52 34.7773 171.395 35.043C171.27 35.3086 171.09 35.543 170.855 35.7461C170.621 35.9414 170.336 36.1016 170 36.2266C169.672 36.3516 169.297 36.4336 168.875 36.4727L164.809 36.8828C164.652 36.8828 164.523 36.9219 164.422 37C164.328 37.0781 164.281 37.1836 164.281 37.3164C164.281 37.5195 164.355 37.7148 164.504 37.9023C164.66 38.0898 164.863 38.2578 165.113 38.4062C165.371 38.5469 165.664 38.6602 165.992 38.7461C166.328 38.832 166.672 38.875 167.023 38.875C167.359 38.875 167.703 38.8438 168.055 38.7812C168.414 38.7109 168.766 38.6133 169.109 38.4883C169.461 38.3633 169.801 38.2148 170.129 38.043C170.457 37.8633 170.766 37.6602 171.055 37.4336ZM168.441 34.4102C168.559 34.3867 168.66 34.332 168.746 34.2461C168.832 34.1523 168.875 34.0391 168.875 33.9062C168.875 33.7891 168.832 33.6797 168.746 33.5781C168.66 33.4766 168.543 33.3867 168.395 33.3086C168.246 33.2227 168.074 33.1562 167.879 33.1094C167.684 33.0625 167.477 33.0391 167.258 33.0391C166.938 33.0391 166.609 33.0859 166.273 33.1797C165.938 33.2734 165.633 33.3984 165.359 33.5547C165.086 33.7031 164.863 33.8711 164.691 34.0586C164.52 34.2383 164.434 34.418 164.434 34.5977C164.434 34.7773 164.543 34.8672 164.762 34.8672C164.895 34.8672 165.109 34.8516 165.406 34.8203C165.703 34.7891 166.031 34.7539 166.391 34.7148C166.75 34.668 167.113 34.6172 167.48 34.5625C167.848 34.5078 168.168 34.457 168.441 34.4102ZM179.832 31.2344C179.543 31.2344 179.289 31.3125 179.07 31.4688C178.852 31.6172 178.664 31.8281 178.508 32.1016C178.352 32.3672 178.223 32.6836 178.121 33.0508C178.02 33.4102 177.938 33.8047 177.875 34.2344C177.812 34.6641 177.77 35.1133 177.746 35.582C177.723 36.0508 177.711 36.5234 177.711 37C177.711 37.625 177.734 38.2422 177.781 38.8516C177.836 39.4531 177.863 40.0117 177.863 40.5273C177.863 40.8633 177.738 41.125 177.488 41.3125C177.238 41.5078 176.883 41.6055 176.422 41.6055C176.336 41.6055 176.238 41.5977 176.129 41.582C176.02 41.5664 175.914 41.5352 175.812 41.4883C175.719 41.4414 175.633 41.375 175.555 41.2891C175.484 41.2109 175.445 41.1016 175.438 40.9609C175.367 40.2734 175.266 39.5703 175.133 38.8516C175 38.1328 174.832 37.418 174.629 36.707C174.434 35.9883 174.195 35.2773 173.914 34.5742C173.641 33.8711 173.324 33.1836 172.965 32.5117C172.902 32.3945 172.848 32.2852 172.801 32.1836C172.762 32.082 172.742 31.9844 172.742 31.8906C172.742 31.7734 172.793 31.6484 172.895 31.5156C173.004 31.375 173.137 31.2461 173.293 31.1289C173.457 31.0117 173.633 30.918 173.82 30.8477C174.016 30.7695 174.203 30.7305 174.383 30.7305C174.68 30.7305 174.941 30.9375 175.168 31.3516C175.395 31.7578 175.605 32.4102 175.801 33.3086C175.84 33.4648 175.871 33.5742 175.895 33.6367C175.918 33.6992 175.949 33.7305 175.988 33.7305C176.074 33.7305 176.129 33.5977 176.152 33.332C176.246 32.5898 176.406 31.9531 176.633 31.4219C176.859 30.8828 177.141 30.4414 177.477 30.0977C177.82 29.7461 178.211 29.4883 178.648 29.3242C179.094 29.1602 179.582 29.0781 180.113 29.0781C180.418 29.0781 180.727 29.1055 181.039 29.1602C181.352 29.2148 181.633 29.2969 181.883 29.4062C182.133 29.5156 182.336 29.6484 182.492 29.8047C182.648 29.9609 182.727 30.1367 182.727 30.332C182.727 30.4727 182.695 30.6406 182.633 30.8359C182.578 31.0234 182.504 31.207 182.41 31.3867C182.316 31.5586 182.207 31.707 182.082 31.832C181.965 31.9492 181.844 32.0078 181.719 32.0078C181.578 32.0078 181.441 31.9688 181.309 31.8906C181.176 31.8047 181.031 31.7148 180.875 31.6211C180.727 31.5273 180.566 31.4414 180.395 31.3633C180.23 31.2773 180.043 31.2344 179.832 31.2344ZM7.85938 68.3164C7.39062 68.3164 6.92188 68.2031 6.45312 67.9766C5.98438 67.7422 5.53516 67.4258 5.10547 67.0273C4.67578 66.6289 4.27734 66.1602 3.91016 65.6211C3.54297 65.0742 3.22266 64.4883 2.94922 63.8633C2.67578 63.2305 2.46094 62.5703 2.30469 61.8828C2.14844 61.1953 2.07031 60.5078 2.07031 59.8203C2.07031 59.2891 2.17969 58.9102 2.39844 58.6836C2.61719 58.4492 2.97266 58.332 3.46484 58.332C4.08203 58.332 4.42578 58.5859 4.49609 59.0938C4.63672 60.1719 4.83203 61.1445 5.08203 62.0117C5.33203 62.8789 5.625 63.6172 5.96094 64.2266C6.30469 64.8359 6.68359 65.3047 7.09766 65.6328C7.51953 65.9609 7.96484 66.125 8.43359 66.125C8.76953 66.125 9.08594 66.043 9.38281 65.8789C9.67969 65.707 9.9375 65.4688 10.1562 65.1641C10.2344 65.0469 10.2852 64.9336 10.3086 64.8242C10.3398 64.7148 10.3633 64.5898 10.3789 64.4492C10.418 63.8945 10.4609 63.3516 10.5078 62.8203C10.5625 62.2812 10.6133 61.7422 10.6602 61.2031C10.6758 60.9688 10.707 60.7773 10.7539 60.6289C10.8008 60.4805 10.8711 60.3633 10.9648 60.2773C11.0586 60.1914 11.1797 60.1328 11.3281 60.1016C11.4844 60.0703 11.6797 60.0547 11.9141 60.0547C12.1797 60.0547 12.4062 60.0938 12.5938 60.1719C12.7812 60.2422 12.9336 60.3633 13.0508 60.5352C13.168 60.6992 13.25 60.918 13.2969 61.1914C13.3516 61.457 13.3789 61.7891 13.3789 62.1875C13.3789 62.5312 13.3516 62.832 13.2969 63.0898C13.25 63.3398 13.1914 63.5781 13.1211 63.8047C13.0586 64.0234 12.9961 64.2422 12.9336 64.4609C12.8789 64.6719 12.8438 64.9062 12.8281 65.1641C12.7891 65.8125 12.7539 66.375 12.7227 66.8516C12.6914 67.3203 12.6641 67.7227 12.6406 68.0586C12.625 68.3945 12.6094 68.6836 12.5938 68.9258C12.5859 69.168 12.5781 69.3828 12.5703 69.5703C12.5625 69.7656 12.5586 69.9492 12.5586 70.1211C12.5586 70.293 12.5586 70.4805 12.5586 70.6836C12.5586 71.0508 12.5742 71.4492 12.6055 71.8789C12.6367 72.3164 12.668 72.7344 12.6992 73.1328C12.7383 73.5312 12.7734 73.8828 12.8047 74.1875C12.8359 74.4922 12.8516 74.7031 12.8516 74.8203C12.8516 74.9688 12.8047 75.1094 12.7109 75.2422C12.6172 75.375 12.4922 75.4922 12.3359 75.5938C12.1797 75.6953 11.9961 75.7734 11.7852 75.8281C11.5742 75.8906 11.3516 75.9219 11.1172 75.9219C10.9141 75.9219 10.75 75.8516 10.625 75.7109C10.5078 75.5781 10.4414 75.3984 10.4258 75.1719C10.4023 74.875 10.3828 74.5117 10.3672 74.082C10.3516 73.6602 10.3359 73.207 10.3203 72.7227C10.3047 72.2461 10.293 71.7578 10.2852 71.2578C10.2852 70.7656 10.2812 70.3047 10.2734 69.875C10.2656 69.4531 10.2617 69.082 10.2617 68.7617C10.2617 68.4414 10.2617 68.2109 10.2617 68.0703C10.2617 67.9297 10.2461 67.832 10.2148 67.7773C10.1836 67.7148 10.125 67.6836 10.0391 67.6836C9.99219 67.6836 9.92969 67.6992 9.85156 67.7305C9.77344 67.7539 9.68359 67.7969 9.58203 67.8594C9.30859 68.0234 9.03125 68.1406 8.75 68.2109C8.46875 68.2812 8.17188 68.3164 7.85938 68.3164ZM14.9375 64.1094C14.9375 63.9766 14.9531 63.8281 14.9844 63.6641C15.0156 63.5 15.0312 63.3203 15.0312 63.125C15.0312 62.9922 14.9727 62.8906 14.8555 62.8203C14.7461 62.75 14.6211 62.6719 14.4805 62.5859C14.3398 62.5 14.2109 62.3906 14.0938 62.2578C13.9844 62.125 13.9297 61.9336 13.9297 61.6836C13.9297 61.5039 13.9766 61.3242 14.0703 61.1445C14.1719 60.9648 14.3164 60.8008 14.5039 60.6523C14.9648 60.3086 15.4414 60 15.9336 59.7266C16.4336 59.4531 16.9297 59.2227 17.4219 59.0352C17.9219 58.8477 18.4141 58.7031 18.8984 58.6016C19.3828 58.5 19.8477 58.4492 20.293 58.4492C21.043 58.4492 21.7461 58.5898 22.4023 58.8711C23.0664 59.1445 23.6406 59.5234 24.125 60.0078C24.6172 60.4844 25.0039 61.0469 25.2852 61.6953C25.5742 62.3359 25.7188 63.0234 25.7188 63.7578C25.7188 64.4766 25.5664 65.1602 25.2617 65.8086C24.9648 66.4492 24.5625 67.0117 24.0547 67.4961C23.5469 67.9805 22.9492 68.3633 22.2617 68.6445C21.582 68.9336 20.8633 69.0781 20.1055 69.0781C19.3633 69.0781 18.6758 68.9531 18.043 68.7031C17.4102 68.4531 16.8633 68.1094 16.4023 67.6719C15.9414 67.2266 15.582 66.7031 15.3242 66.1016C15.0664 65.4922 14.9375 64.8281 14.9375 64.1094ZM20.3633 66.9688C20.6914 66.9688 21.0312 66.9023 21.3828 66.7695C21.7344 66.6367 22.0547 66.4453 22.3438 66.1953C22.6406 65.9375 22.8828 65.625 23.0703 65.2578C23.2656 64.8906 23.3633 64.4766 23.3633 64.0156C23.3633 63.5469 23.2773 63.1094 23.1055 62.7031C22.9336 62.2969 22.6953 61.9453 22.3906 61.6484C22.0938 61.3438 21.7383 61.1055 21.3242 60.9336C20.918 60.7617 20.4766 60.6758 20 60.6758C19.1328 60.6758 18.4688 60.9023 18.0078 61.3555C17.5469 61.8008 17.3164 62.4883 17.3164 63.418C17.3164 63.9258 17.3906 64.3984 17.5391 64.8359C17.6953 65.2656 17.9102 65.6406 18.1836 65.9609C18.457 66.2734 18.7773 66.5195 19.1445 66.6992C19.5195 66.8789 19.9258 66.9688 20.3633 66.9688ZM29.7148 63.8516C29.7148 64.8984 29.875 65.707 30.1953 66.2773C30.5156 66.8477 30.9805 67.1328 31.5898 67.1328C31.9727 67.1328 32.3242 67.0195 32.6445 66.793C32.9727 66.5664 33.2539 66.25 33.4883 65.8438C33.7227 65.4375 33.9023 64.957 34.0273 64.4023C34.1602 63.8398 34.2266 63.2305 34.2266 62.5742C34.2266 62.1758 34.2109 61.832 34.1797 61.543C34.1484 61.2461 34.1133 60.9844 34.0742 60.7578C34.043 60.5234 34.0117 60.3164 33.9805 60.1367C33.9492 59.957 33.9336 59.7852 33.9336 59.6211C33.9336 59.3711 34.0391 59.1914 34.25 59.082C34.4609 58.9648 34.7969 58.9062 35.2578 58.9062C35.8438 58.9062 36.2969 59.0391 36.6172 59.3047C36.9453 59.5703 37.1094 59.957 37.1094 60.4648C37.1094 61.8477 36.9727 63.0898 36.6992 64.1914C36.4336 65.293 36.0469 66.2305 35.5391 67.0039C35.0391 67.7695 34.4297 68.3594 33.7109 68.7734C32.9922 69.1875 32.1875 69.3945 31.2969 69.3945C30.6641 69.3945 30.0781 69.2617 29.5391 68.9961C29.0078 68.7383 28.5469 68.375 28.1562 67.9062C27.7734 67.4297 27.4727 66.8672 27.2539 66.2188C27.0352 65.5625 26.9258 64.8438 26.9258 64.0625C26.9258 63.7656 26.9336 63.4492 26.9492 63.1133C26.9648 62.7773 26.9883 62.418 27.0195 62.0352C27.0508 61.6445 27.0898 61.2227 27.1367 60.7695C27.1914 60.3164 27.25 59.8242 27.3125 59.293C27.3359 59.0664 27.4414 58.8867 27.6289 58.7539C27.8242 58.6133 28.0703 58.543 28.3672 58.543C28.6328 58.543 28.8828 58.5703 29.1172 58.625C29.3516 58.6797 29.5508 58.7539 29.7148 58.8477C29.8867 58.9414 30.0195 59.0508 30.1133 59.1758C30.2148 59.3008 30.2656 59.4336 30.2656 59.5742C30.2656 59.7148 30.2344 59.9375 30.1719 60.2422C30.1172 60.5391 30.0547 60.8828 29.9844 61.2734C29.9219 61.6562 29.8594 62.0742 29.7969 62.5273C29.7422 62.9727 29.7148 63.4141 29.7148 63.8516ZM44.8789 59.2344C44.5898 59.2344 44.3359 59.3125 44.1172 59.4688C43.8984 59.6172 43.7109 59.8281 43.5547 60.1016C43.3984 60.3672 43.2695 60.6836 43.168 61.0508C43.0664 61.4102 42.9844 61.8047 42.9219 62.2344C42.8594 62.6641 42.8164 63.1133 42.793 63.582C42.7695 64.0508 42.7578 64.5234 42.7578 65C42.7578 65.625 42.7812 66.2422 42.8281 66.8516C42.8828 67.4531 42.9102 68.0117 42.9102 68.5273C42.9102 68.8633 42.7852 69.125 42.5352 69.3125C42.2852 69.5078 41.9297 69.6055 41.4688 69.6055C41.3828 69.6055 41.2852 69.5977 41.1758 69.582C41.0664 69.5664 40.9609 69.5352 40.8594 69.4883C40.7656 69.4414 40.6797 69.375 40.6016 69.2891C40.5312 69.2109 40.4922 69.1016 40.4844 68.9609C40.4141 68.2734 40.3125 67.5703 40.1797 66.8516C40.0469 66.1328 39.8789 65.418 39.6758 64.707C39.4805 63.9883 39.2422 63.2773 38.9609 62.5742C38.6875 61.8711 38.3711 61.1836 38.0117 60.5117C37.9492 60.3945 37.8945 60.2852 37.8477 60.1836C37.8086 60.082 37.7891 59.9844 37.7891 59.8906C37.7891 59.7734 37.8398 59.6484 37.9414 59.5156C38.0508 59.375 38.1836 59.2461 38.3398 59.1289C38.5039 59.0117 38.6797 58.918 38.8672 58.8477C39.0625 58.7695 39.25 58.7305 39.4297 58.7305C39.7266 58.7305 39.9883 58.9375 40.2148 59.3516C40.4414 59.7578 40.6523 60.4102 40.8477 61.3086C40.8867 61.4648 40.918 61.5742 40.9414 61.6367C40.9648 61.6992 40.9961 61.7305 41.0352 61.7305C41.1211 61.7305 41.1758 61.5977 41.1992 61.332C41.293 60.5898 41.4531 59.9531 41.6797 59.4219C41.9062 58.8828 42.1875 58.4414 42.5234 58.0977C42.8672 57.7461 43.2578 57.4883 43.6953 57.3242C44.1406 57.1602 44.6289 57.0781 45.1602 57.0781C45.4648 57.0781 45.7734 57.1055 46.0859 57.1602C46.3984 57.2148 46.6797 57.2969 46.9297 57.4062C47.1797 57.5156 47.3828 57.6484 47.5391 57.8047C47.6953 57.9609 47.7734 58.1367 47.7734 58.332C47.7734 58.4727 47.7422 58.6406 47.6797 58.8359C47.625 59.0234 47.5508 59.207 47.457 59.3867C47.3633 59.5586 47.2539 59.707 47.1289 59.832C47.0117 59.9492 46.8906 60.0078 46.7656 60.0078C46.625 60.0078 46.4883 59.9688 46.3555 59.8906C46.2227 59.8047 46.0781 59.7148 45.9219 59.6211C45.7734 59.5273 45.6133 59.4414 45.4414 59.3633C45.2773 59.2773 45.0898 59.2344 44.8789 59.2344ZM60.0898 57.7578C60.5195 57.7578 60.9336 57.8242 61.332 57.957C61.7305 58.0898 62.082 58.2734 62.3867 58.5078C62.6914 58.7422 62.9336 59.0234 63.1133 59.3516C63.3008 59.6797 63.3945 60.043 63.3945 60.4414C63.3945 60.6055 63.3555 60.7656 63.2773 60.9219C63.207 61.0703 63.1094 61.2031 62.9844 61.3203C62.8594 61.4297 62.7148 61.5195 62.5508 61.5898C62.3945 61.6523 62.2305 61.6836 62.0586 61.6836C62.043 61.6836 62.0273 61.6875 62.0117 61.6953C62.0039 61.6953 61.9922 61.6953 61.9766 61.6953C61.9609 61.7031 61.9453 61.707 61.9297 61.707L61.9766 62.6445C62.0078 63.7617 62.1641 64.5781 62.4453 65.0938C62.7344 65.6094 63.1094 65.8672 63.5703 65.8672C63.7344 65.8672 63.8789 65.8516 64.0039 65.8203C64.1367 65.7891 64.2578 65.7539 64.3672 65.7148C64.4844 65.668 64.5938 65.6289 64.6953 65.5977C64.7969 65.5664 64.8984 65.5508 65 65.5508C65.1797 65.5508 65.3359 65.6289 65.4688 65.7852C65.6094 65.9414 65.6797 66.1289 65.6797 66.3477C65.6797 66.5664 65.5938 66.7852 65.4219 67.0039C65.2578 67.2227 65.0391 67.4219 64.7656 67.6016C64.4922 67.7734 64.1836 67.9141 63.8398 68.0234C63.4961 68.1328 63.1484 68.1875 62.7969 68.1875C62.1875 68.1875 61.6523 67.9375 61.1914 67.4375C60.7305 66.9297 60.4023 66.1875 60.207 65.2109C60.1602 65.0547 60.0977 64.9766 60.0195 64.9766C59.9258 64.9766 59.8438 65.0234 59.7734 65.1172C59 66.0938 58.1758 66.8281 57.3008 67.3203C56.4258 67.8047 55.5625 68.0469 54.7109 68.0469C54.3125 68.0469 53.9531 67.9883 53.6328 67.8711C53.3125 67.7539 53.0391 67.5898 52.8125 67.3789C52.5938 67.1602 52.4219 66.8984 52.2969 66.5938C52.1797 66.2812 52.1211 65.9336 52.1211 65.5508C52.1211 65.0117 52.2383 64.4453 52.4727 63.8516C52.7148 63.2578 53.0391 62.6719 53.4453 62.0938C53.8516 61.5156 54.3203 60.9648 54.8516 60.4414C55.3906 59.918 55.9531 59.457 56.5391 59.0586C57.1328 58.6602 57.7344 58.3438 58.3438 58.1094C58.9531 57.875 59.5352 57.7578 60.0898 57.7578ZM59.7031 61.8125C59.8438 61.5469 59.9727 61.3555 60.0898 61.2383C60.207 61.1133 60.375 61.0312 60.5938 60.9922C60.7656 60.9688 60.8516 60.9141 60.8516 60.8281C60.8516 60.7656 60.8281 60.6992 60.7812 60.6289C60.6328 60.4258 60.4766 60.25 60.3125 60.1016C60.1484 59.9453 59.9297 59.8672 59.6562 59.8672C59.3594 59.8672 59.0273 59.9531 58.6602 60.125C58.293 60.2969 57.918 60.5273 57.5352 60.8164C57.1602 61.0977 56.7891 61.4219 56.4219 61.7891C56.0625 62.1484 55.7422 62.5195 55.4609 62.9023C55.1797 63.2852 54.9531 63.6641 54.7812 64.0391C54.6094 64.4141 54.5234 64.75 54.5234 65.0469C54.5234 65.3125 54.5938 65.5195 54.7344 65.668C54.8828 65.8164 55.082 65.8906 55.332 65.8906C55.9727 65.8906 56.6719 65.5508 57.4297 64.8711C58.1875 64.1914 58.9453 63.1719 59.7031 61.8125ZM64.9297 59.8203C64.9297 59.5156 65.0664 59.2852 65.3398 59.1289C65.6133 58.9648 66.0039 58.8828 66.5117 58.8828C66.6289 58.8828 66.7344 58.8984 66.8281 58.9297C66.9219 58.9609 67.0039 59.0234 67.0742 59.1172C67.1523 59.2031 67.2227 59.3242 67.2852 59.4805C67.3477 59.6367 67.4102 59.8359 67.4727 60.0781C67.5352 60.3516 67.5977 60.4883 67.6602 60.4883C67.7148 60.4883 67.7812 60.375 67.8594 60.1484C68 59.7031 68.1836 59.3164 68.4102 58.9883C68.6445 58.6523 68.9062 58.375 69.1953 58.1562C69.4844 57.9297 69.7969 57.7617 70.1328 57.6523C70.4766 57.543 70.8359 57.4883 71.2109 57.4883C71.9688 57.4883 72.6758 57.6328 73.332 57.9219C73.9883 58.2031 74.5547 58.5977 75.0312 59.1055C75.5078 59.6055 75.8828 60.1992 76.1562 60.8867C76.4297 61.5664 76.5664 62.3047 76.5664 63.1016C76.5664 63.9453 76.418 64.7266 76.1211 65.4453C75.832 66.1641 75.4258 66.7852 74.9023 67.3086C74.3789 67.8242 73.7539 68.2266 73.0273 68.5156C72.3086 68.8125 71.5195 68.9609 70.6602 68.9609L70.0625 68.9375C69.7109 68.9375 69.5352 69.1367 69.5352 69.5352L70.1328 74.9141C70.125 75.0469 70.0781 75.168 69.9922 75.2773C69.9141 75.3945 69.8047 75.4961 69.6641 75.582C69.5312 75.668 69.3711 75.7344 69.1836 75.7812C69.0039 75.8281 68.8164 75.8516 68.6211 75.8516C68.0586 75.8516 67.7539 75.668 67.707 75.3008C67.543 73.8789 67.3594 72.5273 67.1562 71.2461C66.9609 69.9648 66.7578 68.7734 66.5469 67.6719C66.3438 66.5625 66.1445 65.5547 65.9492 64.6484C65.7539 63.7422 65.5781 62.9531 65.4219 62.2812C65.2734 61.6094 65.1562 61.0625 65.0703 60.6406C64.9766 60.2188 64.9297 59.9453 64.9297 59.8203ZM68.7383 62.9141C68.7383 63.4219 68.7578 63.9258 68.7969 64.4258C68.8359 64.918 68.8984 65.4531 68.9844 66.0312C69.0312 66.3828 69.2227 66.582 69.5586 66.6289C69.7617 66.6758 69.9883 66.7227 70.2383 66.7695C70.4961 66.8086 70.7109 66.8281 70.8828 66.8281C71.3828 66.8281 71.8359 66.7539 72.2422 66.6055C72.6484 66.457 72.9961 66.2461 73.2852 65.9727C73.5742 65.6914 73.7969 65.3594 73.9531 64.9766C74.1094 64.5938 74.1875 64.168 74.1875 63.6992C74.1875 63.1289 74.1094 62.5977 73.9531 62.1055C73.7969 61.6055 73.582 61.1719 73.3086 60.8047C73.043 60.4375 72.7266 60.1484 72.3594 59.9375C72 59.7266 71.6094 59.6211 71.1875 59.6211C70.8203 59.6211 70.4844 59.7031 70.1797 59.8672C69.8828 60.0234 69.625 60.2461 69.4062 60.5352C69.1953 60.8164 69.0312 61.1602 68.9141 61.5664C68.7969 61.9727 68.7383 62.4219 68.7383 62.9141ZM79.6367 56.0469C79.4102 56.0469 79.1953 56.0156 78.9922 55.9531C78.7969 55.8828 78.625 55.7891 78.4766 55.6719C78.3359 55.5469 78.2227 55.4023 78.1367 55.2383C78.0508 55.0742 78.0078 54.8945 78.0078 54.6992C78.0078 54.3711 78.1367 54.1055 78.3945 53.9023C78.6602 53.6992 79.0117 53.5977 79.4492 53.5977C79.6523 53.5977 79.8477 53.6367 80.0352 53.7148C80.2227 53.7852 80.3867 53.8828 80.5273 54.0078C80.6758 54.1328 80.793 54.2812 80.8789 54.4531C80.9648 54.6172 81.0078 54.7891 81.0078 54.9688C81.0078 55.3047 80.8828 55.5703 80.6328 55.7656C80.3906 55.9531 80.0586 56.0469 79.6367 56.0469ZM78.0312 59.6211C78.0312 59.3477 78.1484 59.125 78.3828 58.9531C78.625 58.7734 78.9414 58.6836 79.332 58.6836C80.0352 58.6836 80.4102 58.9258 80.457 59.4102C80.4883 59.7461 80.5195 60.125 80.5508 60.5469C80.5898 60.9688 80.625 61.418 80.6562 61.8945C80.6953 62.3633 80.7266 62.8516 80.75 63.3594C80.7812 63.8594 80.8086 64.3555 80.832 64.8477C80.8555 65.332 80.875 65.8008 80.8906 66.2539C80.9062 66.707 80.9141 67.1211 80.9141 67.4961C80.9141 67.8867 80.7734 68.1797 80.4922 68.375C80.2188 68.5703 79.8164 68.668 79.2852 68.668C79.043 68.668 78.8516 68.6094 78.7109 68.4922C78.5781 68.3828 78.5117 68.2188 78.5117 68C78.5117 66.9219 78.4844 65.9141 78.4297 64.9766C78.3828 64.0312 78.3281 63.1914 78.2656 62.457C78.2109 61.7227 78.1562 61.1133 78.1016 60.6289C78.0547 60.1367 78.0312 59.8008 78.0312 59.6211ZM99.3242 56.9141C99.3242 57.2188 99.2227 57.5039 99.0195 57.7695C98.8242 58.0352 98.5742 58.293 98.2695 58.543C97.9727 58.793 97.6484 59.0352 97.2969 59.2695C96.9453 59.5039 96.6172 59.7422 96.3125 59.9844C96.0156 60.2266 95.7656 60.4727 95.5625 60.7227C95.3672 60.9727 95.2695 61.2383 95.2695 61.5195C95.2695 61.7539 95.4336 61.9805 95.7617 62.1992C96.0898 62.418 96.5625 62.6367 97.1797 62.8555C97.7969 63.0742 98.543 63.3008 99.418 63.5352C100.293 63.7617 101.277 64.0039 102.371 64.2617C102.918 64.4102 103.191 64.6875 103.191 65.0938C103.191 65.25 103.152 65.4023 103.074 65.5508C103.004 65.6992 102.906 65.832 102.781 65.9492C102.656 66.0586 102.512 66.1484 102.348 66.2188C102.191 66.2891 102.031 66.3242 101.867 66.3242C101.477 66.3242 101.031 66.2656 100.531 66.1484C100.039 66.0312 99.5273 65.8867 98.9961 65.7148C98.4648 65.543 97.9336 65.3555 97.4023 65.1523C96.8711 64.9414 96.3711 64.75 95.9023 64.5781C95.4414 64.4062 95.0312 64.2617 94.6719 64.1445C94.3203 64.0273 94.0547 63.9688 93.875 63.9688C93.7344 63.9688 93.5977 64.0352 93.4648 64.168C93.3398 64.293 93.2227 64.4688 93.1133 64.6953C93.0117 64.9219 92.9258 65.1914 92.8555 65.5039C92.7852 65.8086 92.7344 66.1445 92.7031 66.5117C92.6641 66.9258 92.5156 67.2344 92.2578 67.4375C92.0078 67.6328 91.6602 67.7305 91.2148 67.7305C90.7539 67.7305 90.4883 67.5156 90.418 67.0859C90.3008 66.4297 90.1562 65.7617 89.9844 65.082C89.8203 64.4023 89.6367 63.7227 89.4336 63.043C89.2383 62.3633 89.0234 61.6914 88.7891 61.0273C88.5625 60.3633 88.3242 59.7266 88.0742 59.1172C88.0117 58.9844 87.9648 58.8633 87.9336 58.7539C87.9102 58.6367 87.8984 58.5195 87.8984 58.4023C87.8984 58.3008 87.9297 58.207 87.9922 58.1211C88.0547 58.0273 88.1406 57.9453 88.25 57.875C88.3594 57.8047 88.4844 57.75 88.625 57.7109C88.7734 57.6719 88.9258 57.6523 89.082 57.6523C89.4023 57.6523 89.6562 57.7188 89.8438 57.8516C90.0312 57.9844 90.2227 58.1836 90.418 58.4492C90.5117 58.5742 90.6016 58.7422 90.6875 58.9531C90.7734 59.1562 90.8555 59.375 90.9336 59.6094C91.0117 59.8438 91.0898 60.082 91.168 60.3242C91.2461 60.5586 91.3203 60.7734 91.3906 60.9688C91.4688 61.1562 91.543 61.3125 91.6133 61.4375C91.6914 61.5547 91.7656 61.6133 91.8359 61.6133C91.8984 61.6133 91.9492 61.5859 91.9883 61.5312C92.0352 61.4766 92.0898 61.3945 92.1523 61.2852C92.5586 60.4414 93.0039 59.6719 93.4883 58.9766C93.9727 58.2734 94.4688 57.6758 94.9766 57.1836C95.4844 56.6836 95.9922 56.2969 96.5 56.0234C97.0156 55.75 97.5078 55.6133 97.9766 55.6133C98.1641 55.6133 98.3398 55.6484 98.5039 55.7188C98.668 55.7812 98.8086 55.8711 98.9258 55.9883C99.0508 56.1055 99.1484 56.2461 99.2188 56.4102C99.2891 56.5664 99.3242 56.7344 99.3242 56.9141ZM111.969 65.4336C112.195 65.2383 112.418 65.1406 112.637 65.1406C112.762 65.1406 112.875 65.1719 112.977 65.2344C113.078 65.2969 113.191 65.3945 113.316 65.5273C113.434 65.707 113.516 65.8555 113.562 65.9727C113.617 66.082 113.645 66.1914 113.645 66.3008C113.645 66.5352 113.527 66.7578 113.293 66.9688C112.918 67.2812 112.512 67.5625 112.074 67.8125C111.637 68.0547 111.18 68.2617 110.703 68.4336C110.227 68.6055 109.734 68.7344 109.227 68.8203C108.719 68.9141 108.215 68.9609 107.715 68.9609C107.082 68.9609 106.488 68.8789 105.934 68.7148C105.379 68.5586 104.883 68.332 104.445 68.0352C104.016 67.7383 103.652 67.3828 103.355 66.9688C103.059 66.5469 102.848 66.0742 102.723 65.5508C102.652 65.332 102.586 65.1914 102.523 65.1289C102.469 65.0586 102.375 65.0234 102.242 65.0234C101.953 65.0234 101.73 64.9531 101.574 64.8125C101.418 64.6719 101.34 64.4688 101.34 64.2031C101.34 64.0938 101.348 64.0234 101.363 63.9922L101.387 63.7578C101.426 63.4766 101.5 63.2734 101.609 63.1484C101.727 63.0234 101.906 62.9609 102.148 62.9609H102.324C102.652 62.9609 102.883 62.8086 103.016 62.5039C103.258 61.9648 103.566 61.4727 103.941 61.0273C104.316 60.582 104.738 60.2031 105.207 59.8906C105.676 59.5703 106.176 59.3242 106.707 59.1523C107.246 58.9727 107.793 58.8828 108.348 58.8828C108.926 58.8828 109.465 58.9688 109.965 59.1406C110.473 59.3047 110.914 59.5352 111.289 59.832C111.664 60.1289 111.957 60.4766 112.168 60.875C112.387 61.2734 112.496 61.7031 112.496 62.1641C112.496 62.4844 112.434 62.7773 112.309 63.043C112.184 63.3086 112.004 63.543 111.77 63.7461C111.535 63.9414 111.25 64.1016 110.914 64.2266C110.586 64.3516 110.211 64.4336 109.789 64.4727L105.723 64.8828C105.566 64.8828 105.438 64.9219 105.336 65C105.242 65.0781 105.195 65.1836 105.195 65.3164C105.195 65.5195 105.27 65.7148 105.418 65.9023C105.574 66.0898 105.777 66.2578 106.027 66.4062C106.285 66.5469 106.578 66.6602 106.906 66.7461C107.242 66.832 107.586 66.875 107.938 66.875C108.273 66.875 108.617 66.8438 108.969 66.7812C109.328 66.7109 109.68 66.6133 110.023 66.4883C110.375 66.3633 110.715 66.2148 111.043 66.043C111.371 65.8633 111.68 65.6602 111.969 65.4336ZM109.355 62.4102C109.473 62.3867 109.574 62.332 109.66 62.2461C109.746 62.1523 109.789 62.0391 109.789 61.9062C109.789 61.7891 109.746 61.6797 109.66 61.5781C109.574 61.4766 109.457 61.3867 109.309 61.3086C109.16 61.2227 108.988 61.1562 108.793 61.1094C108.598 61.0625 108.391 61.0391 108.172 61.0391C107.852 61.0391 107.523 61.0859 107.188 61.1797C106.852 61.2734 106.547 61.3984 106.273 61.5547C106 61.7031 105.777 61.8711 105.605 62.0586C105.434 62.2383 105.348 62.418 105.348 62.5977C105.348 62.7773 105.457 62.8672 105.676 62.8672C105.809 62.8672 106.023 62.8516 106.32 62.8203C106.617 62.7891 106.945 62.7539 107.305 62.7148C107.664 62.668 108.027 62.6172 108.395 62.5625C108.762 62.5078 109.082 62.457 109.355 62.4102ZM119.281 68.3164C118.812 68.3164 118.344 68.2031 117.875 67.9766C117.406 67.7422 116.957 67.4258 116.527 67.0273C116.098 66.6289 115.699 66.1602 115.332 65.6211C114.965 65.0742 114.645 64.4883 114.371 63.8633C114.098 63.2305 113.883 62.5703 113.727 61.8828C113.57 61.1953 113.492 60.5078 113.492 59.8203C113.492 59.2891 113.602 58.9102 113.82 58.6836C114.039 58.4492 114.395 58.332 114.887 58.332C115.504 58.332 115.848 58.5859 115.918 59.0938C116.059 60.1719 116.254 61.1445 116.504 62.0117C116.754 62.8789 117.047 63.6172 117.383 64.2266C117.727 64.8359 118.105 65.3047 118.52 65.6328C118.941 65.9609 119.387 66.125 119.855 66.125C120.191 66.125 120.508 66.043 120.805 65.8789C121.102 65.707 121.359 65.4688 121.578 65.1641C121.656 65.0469 121.707 64.9336 121.73 64.8242C121.762 64.7148 121.785 64.5898 121.801 64.4492C121.84 63.8945 121.883 63.3516 121.93 62.8203C121.984 62.2812 122.035 61.7422 122.082 61.2031C122.098 60.9688 122.129 60.7773 122.176 60.6289C122.223 60.4805 122.293 60.3633 122.387 60.2773C122.48 60.1914 122.602 60.1328 122.75 60.1016C122.906 60.0703 123.102 60.0547 123.336 60.0547C123.602 60.0547 123.828 60.0938 124.016 60.1719C124.203 60.2422 124.355 60.3633 124.473 60.5352C124.59 60.6992 124.672 60.918 124.719 61.1914C124.773 61.457 124.801 61.7891 124.801 62.1875C124.801 62.5312 124.773 62.832 124.719 63.0898C124.672 63.3398 124.613 63.5781 124.543 63.8047C124.48 64.0234 124.418 64.2422 124.355 64.4609C124.301 64.6719 124.266 64.9062 124.25 65.1641C124.211 65.8125 124.176 66.375 124.145 66.8516C124.113 67.3203 124.086 67.7227 124.062 68.0586C124.047 68.3945 124.031 68.6836 124.016 68.9258C124.008 69.168 124 69.3828 123.992 69.5703C123.984 69.7656 123.98 69.9492 123.98 70.1211C123.98 70.293 123.98 70.4805 123.98 70.6836C123.98 71.0508 123.996 71.4492 124.027 71.8789C124.059 72.3164 124.09 72.7344 124.121 73.1328C124.16 73.5312 124.195 73.8828 124.227 74.1875C124.258 74.4922 124.273 74.7031 124.273 74.8203C124.273 74.9688 124.227 75.1094 124.133 75.2422C124.039 75.375 123.914 75.4922 123.758 75.5938C123.602 75.6953 123.418 75.7734 123.207 75.8281C122.996 75.8906 122.773 75.9219 122.539 75.9219C122.336 75.9219 122.172 75.8516 122.047 75.7109C121.93 75.5781 121.863 75.3984 121.848 75.1719C121.824 74.875 121.805 74.5117 121.789 74.082C121.773 73.6602 121.758 73.207 121.742 72.7227C121.727 72.2461 121.715 71.7578 121.707 71.2578C121.707 70.7656 121.703 70.3047 121.695 69.875C121.688 69.4531 121.684 69.082 121.684 68.7617C121.684 68.4414 121.684 68.2109 121.684 68.0703C121.684 67.9297 121.668 67.832 121.637 67.7773C121.605 67.7148 121.547 67.6836 121.461 67.6836C121.414 67.6836 121.352 67.6992 121.273 67.7305C121.195 67.7539 121.105 67.7969 121.004 67.8594C120.73 68.0234 120.453 68.1406 120.172 68.2109C119.891 68.2812 119.594 68.3164 119.281 68.3164ZM131.574 56.7148C131.574 55.8711 132.121 55.4492 133.215 55.4492C133.402 55.4492 133.566 55.5 133.707 55.6016C133.848 55.7031 133.93 55.8438 133.953 56.0234C134.023 56.5 134.086 56.9727 134.141 57.4414C134.195 57.9102 134.246 58.4375 134.293 59.0234C134.348 59.6016 134.398 60.2734 134.445 61.0391C134.5 61.7969 134.559 62.7031 134.621 63.7578C134.621 63.8672 134.637 63.9453 134.668 63.9922C134.707 64.0391 134.75 64.0625 134.797 64.0625C134.867 64.0625 134.938 63.9922 135.008 63.8516C135.273 63.2656 135.57 62.7422 135.898 62.2812C136.227 61.8125 136.578 61.418 136.953 61.0977C137.328 60.7695 137.723 60.5234 138.137 60.3594C138.559 60.1875 138.988 60.1016 139.426 60.1016C140.004 60.1016 140.527 60.2656 140.996 60.5938C141.465 60.9219 141.863 61.3867 142.191 61.9883C142.52 62.5898 142.773 63.3203 142.953 64.1797C143.133 65.0312 143.223 65.9844 143.223 67.0391C143.223 67.3281 143.199 67.5664 143.152 67.7539C143.113 67.9336 143.043 68.0781 142.941 68.1875C142.84 68.2969 142.699 68.3711 142.52 68.4102C142.34 68.457 142.117 68.4805 141.852 68.4805C141.484 68.4805 141.219 68.4102 141.055 68.2695C140.898 68.1289 140.82 67.9102 140.82 67.6133C140.82 66.8789 140.77 66.1875 140.668 65.5391C140.574 64.8828 140.441 64.3086 140.27 63.8164C140.098 63.3242 139.895 62.9336 139.66 62.6445C139.434 62.3555 139.188 62.2109 138.922 62.2109C138.32 62.2109 137.719 62.6992 137.117 63.6758C136.523 64.6523 135.902 66.125 135.254 68.0938C135.191 68.2734 135.121 68.4219 135.043 68.5391C134.965 68.6562 134.871 68.75 134.762 68.8203C134.66 68.8906 134.535 68.9375 134.387 68.9609C134.238 68.9922 134.062 69.0078 133.859 69.0078C133.445 69.0078 133.148 68.9297 132.969 68.7734C132.797 68.6172 132.703 68.3594 132.688 68C132.641 66.6406 132.555 65.3438 132.43 64.1094C132.312 62.8672 132.188 61.7461 132.055 60.7461C131.93 59.7383 131.816 58.8867 131.715 58.1914C131.621 57.4883 131.574 56.9961 131.574 56.7148ZM154.766 65.4336C154.992 65.2383 155.215 65.1406 155.434 65.1406C155.559 65.1406 155.672 65.1719 155.773 65.2344C155.875 65.2969 155.988 65.3945 156.113 65.5273C156.23 65.707 156.312 65.8555 156.359 65.9727C156.414 66.082 156.441 66.1914 156.441 66.3008C156.441 66.5352 156.324 66.7578 156.09 66.9688C155.715 67.2812 155.309 67.5625 154.871 67.8125C154.434 68.0547 153.977 68.2617 153.5 68.4336C153.023 68.6055 152.531 68.7344 152.023 68.8203C151.516 68.9141 151.012 68.9609 150.512 68.9609C149.879 68.9609 149.285 68.8789 148.73 68.7148C148.176 68.5586 147.68 68.332 147.242 68.0352C146.812 67.7383 146.449 67.3828 146.152 66.9688C145.855 66.5469 145.645 66.0742 145.52 65.5508C145.449 65.332 145.383 65.1914 145.32 65.1289C145.266 65.0586 145.172 65.0234 145.039 65.0234C144.75 65.0234 144.527 64.9531 144.371 64.8125C144.215 64.6719 144.137 64.4688 144.137 64.2031C144.137 64.0938 144.145 64.0234 144.16 63.9922L144.184 63.7578C144.223 63.4766 144.297 63.2734 144.406 63.1484C144.523 63.0234 144.703 62.9609 144.945 62.9609H145.121C145.449 62.9609 145.68 62.8086 145.812 62.5039C146.055 61.9648 146.363 61.4727 146.738 61.0273C147.113 60.582 147.535 60.2031 148.004 59.8906C148.473 59.5703 148.973 59.3242 149.504 59.1523C150.043 58.9727 150.59 58.8828 151.145 58.8828C151.723 58.8828 152.262 58.9688 152.762 59.1406C153.27 59.3047 153.711 59.5352 154.086 59.832C154.461 60.1289 154.754 60.4766 154.965 60.875C155.184 61.2734 155.293 61.7031 155.293 62.1641C155.293 62.4844 155.23 62.7773 155.105 63.043C154.98 63.3086 154.801 63.543 154.566 63.7461C154.332 63.9414 154.047 64.1016 153.711 64.2266C153.383 64.3516 153.008 64.4336 152.586 64.4727L148.52 64.8828C148.363 64.8828 148.234 64.9219 148.133 65C148.039 65.0781 147.992 65.1836 147.992 65.3164C147.992 65.5195 148.066 65.7148 148.215 65.9023C148.371 66.0898 148.574 66.2578 148.824 66.4062C149.082 66.5469 149.375 66.6602 149.703 66.7461C150.039 66.832 150.383 66.875 150.734 66.875C151.07 66.875 151.414 66.8438 151.766 66.7812C152.125 66.7109 152.477 66.6133 152.82 66.4883C153.172 66.3633 153.512 66.2148 153.84 66.043C154.168 65.8633 154.477 65.6602 154.766 65.4336ZM152.152 62.4102C152.27 62.3867 152.371 62.332 152.457 62.2461C152.543 62.1523 152.586 62.0391 152.586 61.9062C152.586 61.7891 152.543 61.6797 152.457 61.5781C152.371 61.4766 152.254 61.3867 152.105 61.3086C151.957 61.2227 151.785 61.1562 151.59 61.1094C151.395 61.0625 151.188 61.0391 150.969 61.0391C150.648 61.0391 150.32 61.0859 149.984 61.1797C149.648 61.2734 149.344 61.3984 149.07 61.5547C148.797 61.7031 148.574 61.8711 148.402 62.0586C148.23 62.2383 148.145 62.418 148.145 62.5977C148.145 62.7773 148.254 62.8672 148.473 62.8672C148.605 62.8672 148.82 62.8516 149.117 62.8203C149.414 62.7891 149.742 62.7539 150.102 62.7148C150.461 62.668 150.824 62.6172 151.191 62.5625C151.559 62.5078 151.879 62.457 152.152 62.4102ZM163.543 59.2344C163.254 59.2344 163 59.3125 162.781 59.4688C162.562 59.6172 162.375 59.8281 162.219 60.1016C162.062 60.3672 161.934 60.6836 161.832 61.0508C161.73 61.4102 161.648 61.8047 161.586 62.2344C161.523 62.6641 161.48 63.1133 161.457 63.582C161.434 64.0508 161.422 64.5234 161.422 65C161.422 65.625 161.445 66.2422 161.492 66.8516C161.547 67.4531 161.574 68.0117 161.574 68.5273C161.574 68.8633 161.449 69.125 161.199 69.3125C160.949 69.5078 160.594 69.6055 160.133 69.6055C160.047 69.6055 159.949 69.5977 159.84 69.582C159.73 69.5664 159.625 69.5352 159.523 69.4883C159.43 69.4414 159.344 69.375 159.266 69.2891C159.195 69.2109 159.156 69.1016 159.148 68.9609C159.078 68.2734 158.977 67.5703 158.844 66.8516C158.711 66.1328 158.543 65.418 158.34 64.707C158.145 63.9883 157.906 63.2773 157.625 62.5742C157.352 61.8711 157.035 61.1836 156.676 60.5117C156.613 60.3945 156.559 60.2852 156.512 60.1836C156.473 60.082 156.453 59.9844 156.453 59.8906C156.453 59.7734 156.504 59.6484 156.605 59.5156C156.715 59.375 156.848 59.2461 157.004 59.1289C157.168 59.0117 157.344 58.918 157.531 58.8477C157.727 58.7695 157.914 58.7305 158.094 58.7305C158.391 58.7305 158.652 58.9375 158.879 59.3516C159.105 59.7578 159.316 60.4102 159.512 61.3086C159.551 61.4648 159.582 61.5742 159.605 61.6367C159.629 61.6992 159.66 61.7305 159.699 61.7305C159.785 61.7305 159.84 61.5977 159.863 61.332C159.957 60.5898 160.117 59.9531 160.344 59.4219C160.57 58.8828 160.852 58.4414 161.188 58.0977C161.531 57.7461 161.922 57.4883 162.359 57.3242C162.805 57.1602 163.293 57.0781 163.824 57.0781C164.129 57.0781 164.438 57.1055 164.75 57.1602C165.062 57.2148 165.344 57.2969 165.594 57.4062C165.844 57.5156 166.047 57.6484 166.203 57.8047C166.359 57.9609 166.438 58.1367 166.438 58.332C166.438 58.4727 166.406 58.6406 166.344 58.8359C166.289 59.0234 166.215 59.207 166.121 59.3867C166.027 59.5586 165.918 59.707 165.793 59.832C165.676 59.9492 165.555 60.0078 165.43 60.0078C165.289 60.0078 165.152 59.9688 165.02 59.8906C164.887 59.8047 164.742 59.7148 164.586 59.6211C164.438 59.5273 164.277 59.4414 164.105 59.3633C163.941 59.2773 163.754 59.2344 163.543 59.2344ZM175.672 65.4336C175.898 65.2383 176.121 65.1406 176.34 65.1406C176.465 65.1406 176.578 65.1719 176.68 65.2344C176.781 65.2969 176.895 65.3945 177.02 65.5273C177.137 65.707 177.219 65.8555 177.266 65.9727C177.32 66.082 177.348 66.1914 177.348 66.3008C177.348 66.5352 177.23 66.7578 176.996 66.9688C176.621 67.2812 176.215 67.5625 175.777 67.8125C175.34 68.0547 174.883 68.2617 174.406 68.4336C173.93 68.6055 173.438 68.7344 172.93 68.8203C172.422 68.9141 171.918 68.9609 171.418 68.9609C170.785 68.9609 170.191 68.8789 169.637 68.7148C169.082 68.5586 168.586 68.332 168.148 68.0352C167.719 67.7383 167.355 67.3828 167.059 66.9688C166.762 66.5469 166.551 66.0742 166.426 65.5508C166.355 65.332 166.289 65.1914 166.227 65.1289C166.172 65.0586 166.078 65.0234 165.945 65.0234C165.656 65.0234 165.434 64.9531 165.277 64.8125C165.121 64.6719 165.043 64.4688 165.043 64.2031C165.043 64.0938 165.051 64.0234 165.066 63.9922L165.09 63.7578C165.129 63.4766 165.203 63.2734 165.312 63.1484C165.43 63.0234 165.609 62.9609 165.852 62.9609H166.027C166.355 62.9609 166.586 62.8086 166.719 62.5039C166.961 61.9648 167.27 61.4727 167.645 61.0273C168.02 60.582 168.441 60.2031 168.91 59.8906C169.379 59.5703 169.879 59.3242 170.41 59.1523C170.949 58.9727 171.496 58.8828 172.051 58.8828C172.629 58.8828 173.168 58.9688 173.668 59.1406C174.176 59.3047 174.617 59.5352 174.992 59.832C175.367 60.1289 175.66 60.4766 175.871 60.875C176.09 61.2734 176.199 61.7031 176.199 62.1641C176.199 62.4844 176.137 62.7773 176.012 63.043C175.887 63.3086 175.707 63.543 175.473 63.7461C175.238 63.9414 174.953 64.1016 174.617 64.2266C174.289 64.3516 173.914 64.4336 173.492 64.4727L169.426 64.8828C169.27 64.8828 169.141 64.9219 169.039 65C168.945 65.0781 168.898 65.1836 168.898 65.3164C168.898 65.5195 168.973 65.7148 169.121 65.9023C169.277 66.0898 169.48 66.2578 169.73 66.4062C169.988 66.5469 170.281 66.6602 170.609 66.7461C170.945 66.832 171.289 66.875 171.641 66.875C171.977 66.875 172.32 66.8438 172.672 66.7812C173.031 66.7109 173.383 66.6133 173.727 66.4883C174.078 66.3633 174.418 66.2148 174.746 66.043C175.074 65.8633 175.383 65.6602 175.672 65.4336ZM173.059 62.4102C173.176 62.3867 173.277 62.332 173.363 62.2461C173.449 62.1523 173.492 62.0391 173.492 61.9062C173.492 61.7891 173.449 61.6797 173.363 61.5781C173.277 61.4766 173.16 61.3867 173.012 61.3086C172.863 61.2227 172.691 61.1562 172.496 61.1094C172.301 61.0625 172.094 61.0391 171.875 61.0391C171.555 61.0391 171.227 61.0859 170.891 61.1797C170.555 61.2734 170.25 61.3984 169.977 61.5547C169.703 61.7031 169.48 61.8711 169.309 62.0586C169.137 62.2383 169.051 62.418 169.051 62.5977C169.051 62.7773 169.16 62.8672 169.379 62.8672C169.512 62.8672 169.727 62.8516 170.023 62.8203C170.32 62.7891 170.648 62.7539 171.008 62.7148C171.367 62.668 171.73 62.6172 172.098 62.5625C172.465 62.5078 172.785 62.457 173.059 62.4102Z" fill="white"/>
<path d="M201 62.5937C208.848 62.5937 215.959 62.4242 223.552 60.1702C230.434 58.1271 238.977 54.2913 244.925 50.1734C252.642 44.8309 257.951 37.3589 257.951 28.0594C257.951 21.4793 247.648 18.9759 244.016 23.5154C240.474 27.9428 243.965 33.6367 247.988 35.9356C252.21 38.3481 257.999 37.7532 262.798 37.7532C265.77 37.7532 267.196 37.0776 269.766 35.9356C272.454 34.7406 273.089 32.9419 275.185 31.2907C277.06 29.8134 280.391 25.9898 280.94 23.5154C281.464 21.1602 283.729 18.8771 284.003 16.548C284.271 14.2729 285.215 12.2171 285.215 9.58051C285.215 7.45999 285.215 1.09841 285.215 3.21893" stroke="#E7F2F8" stroke-width="3" stroke-linecap="round"/>
<path d="M275.99 11.088C280.14 10.6269 281.418 3.52688 284.472 2" stroke="#E7F2F8" stroke-width="3" stroke-linecap="round"/>
<path d="M285.29 2C286.607 2.16468 288.329 5.53463 288.925 6.57764C289.898 8.28015 291.728 9.42297 292.56 11.088" stroke="#E7F2F8" stroke-width="3" stroke-linecap="round"/>
</svg>
